<?xml version="1.0" encoding="UTF-8" standalone="no"?>
<svg width="398px" height="141px" viewBox="0 0 398 141" version="1.1" xmlns="http://www.w3.org/2000/svg" xmlns:xlink="http://www.w3.org/1999/xlink">
    <!-- Generator: Sketch 3.7.2 (28276) - http://www.bohemiancoding.com/sketch -->
    <title>Artboard 6</title>
    <desc>Created with Sketch.</desc>
    <defs></defs>
    <g id="Page-1" stroke="none" stroke-width="1" fill="none" fill-rule="evenodd">
        <g id="Artboard-6" fill="#000000">
            <g id="Dimmer">
                <path d="M28.338983,137.124294 L28.338983,0.463276845 L-5.68434189e-14,0.463276845 L-5.68434189e-14,137.124294 L28.338983,137.124294 Z M286.372881,137.124294 L286.372881,82.1242937 C286.372881,77.6496951 286.000004,73.8587726 285.254237,70.7514124 C284.508471,67.6440522 283.389838,64.9096163 281.898305,62.5480226 C279.536711,58.9434848 276.336178,56.1469026 272.29661,54.1581921 C268.257042,52.1694816 263.87573,51.1751412 259.152542,51.1751412 C247.344574,51.1751412 238.271218,56.4575743 231.932203,67.0225988 C228.700549,61.4293505 224.940699,57.3898429 220.652542,54.9039548 C216.364385,52.4180666 211.050879,51.1751412 204.711864,51.1751412 C199.491499,51.1751412 194.923748,52.0762622 191.008475,53.8785311 C187.093201,55.6807999 183.02262,58.6948941 178.79661,62.9209039 L178.79661,52.6666666 L150.457627,52.6666666 L150.457627,137.124294 L178.79661,137.124294 L178.79661,95.3615819 C178.79661,91.6327497 178.951976,88.6808018 179.262712,86.5056497 C179.573448,84.3304976 180.039545,82.4971826 180.661017,81.0056497 C181.655372,78.8926448 183.240102,77.1525492 185.415254,75.7853107 C187.590406,74.4180722 189.734453,73.7344632 191.847458,73.7344632 C194.209051,73.7344632 196.446317,74.5112916 198.559322,76.0649717 C200.672327,77.6186518 202.101691,79.5762593 202.847458,81.9378531 C203.096046,82.6836195 203.313558,83.3983016 203.5,84.0819209 C203.686442,84.7655401 203.810734,85.5423685 203.872881,86.4124293 C203.935029,87.2824902 203.997175,88.4321962 204.059322,89.8615819 C204.121469,91.2909676 204.152542,93.1242826 204.152542,95.3615819 L204.152542,137.124294 L232.305085,137.124294 L232.305085,95.3615819 C232.305085,92.1299273 232.46045,89.550857 232.771186,87.6242937 C233.081922,85.6977304 233.610166,83.9265617 234.355932,82.3107344 C235.350287,79.9491407 236.935017,78.0536794 239.11017,76.6242937 C241.285322,75.1949081 243.615807,74.480226 246.101695,74.480226 C248.463289,74.480226 250.545189,75.1327618 252.347458,76.4378531 C254.149727,77.7429443 255.548018,79.5141131 256.542373,81.7514124 C256.915256,82.7457676 257.194914,83.5536692 257.381356,84.1751412 C257.567798,84.7966132 257.723163,85.5734416 257.847458,86.5056497 C257.971752,87.4378577 258.033898,88.5875637 258.033898,89.9548022 L258.033898,95.3615819 L258.033898,137.124294 L286.372881,137.124294 Z M396,94.8022598 C396,88.2146563 394.819221,82.1553948 392.457627,76.6242937 C390.096033,71.0931927 386.771208,66.3079298 382.483051,62.2683616 C378.194894,58.2287933 373.0989,55.0904066 367.194915,52.8531073 C361.290931,50.615808 354.796646,49.4971751 347.711864,49.4971751 C340.627083,49.4971751 334.132798,50.615808 328.228814,52.8531073 C322.324829,55.0904066 317.228835,58.2287933 312.940678,62.2683616 C308.652521,66.3079298 305.327695,71.0931927 302.966102,76.6242937 C300.604508,82.1553948 299.423729,88.2146563 299.423729,94.8022598 C299.423729,101.514158 300.604508,107.635566 302.966102,113.166667 C305.327695,118.697768 308.652521,123.483031 312.940678,127.522599 C317.228835,131.562167 322.324829,134.700554 328.228814,136.937853 C334.132798,139.175152 340.627083,140.293785 347.711864,140.293785 C354.796646,140.293785 361.290931,139.175152 367.194915,136.937853 C373.0989,134.700554 378.194894,131.562167 382.483051,127.522599 C386.771208,123.483031 390.096033,118.697768 392.457627,113.166667 C394.819221,107.635566 396,101.514158 396,94.8022598 L396,94.8022598 Z M365.983051,94.8022598 C365.983051,97.4124424 365.516954,99.8982932 364.584746,102.259887 C363.652538,104.621481 362.347466,106.672308 360.669492,108.412429 C358.991517,110.152551 357.03391,111.519769 354.79661,112.514124 C352.559311,113.508479 350.197753,114.00565 347.711864,114.00565 C345.225976,114.00565 342.864418,113.508479 340.627119,112.514124 C338.389819,111.519769 336.432212,110.152551 334.754237,108.412429 C333.076263,106.672308 331.771191,104.621481 330.838983,102.259887 C329.906775,99.8982932 329.440678,97.4124424 329.440678,94.8022598 C329.440678,92.1920773 329.906775,89.7062265 330.838983,87.3446327 C331.771191,84.983039 333.076263,82.9322121 334.754237,81.1920904 C336.432212,79.4519687 338.389819,78.0847507 340.627119,77.0903954 C342.864418,76.0960402 345.225976,75.59887 347.711864,75.59887 C350.197753,75.59887 352.559311,76.0960402 354.79661,77.0903954 C357.03391,78.0847507 358.991517,79.4519687 360.669492,81.1920904 C362.347466,82.9322121 363.652538,84.983039 364.584746,87.3446327 C365.516954,89.7062265 365.983051,92.1920773 365.983051,94.8022598 Z M47.5690139,51.5746537 L47.5690139,105.269569 C47.5690139,108.252635 47.6933064,110.831705 47.9418952,113.006857 C48.1904841,115.182009 48.5944348,117.17069 49.1537597,118.972959 C49.7130845,120.775228 50.4588397,122.453177 51.3910478,124.006857 C52.3232558,125.560537 53.5351081,127.145267 55.026641,128.761094 C60.6198893,134.975815 68.3260269,138.083128 78.1452851,138.083128 C87.4673656,138.083128 94.8006256,135.286546 100.145285,129.693298 C100.766757,129.071826 101.38822,128.41929 102.009692,127.735671 C102.631164,127.052051 103.252627,126.275223 103.874099,125.405162 L103.874099,136.032281 L132.213082,136.032281 L132.213082,51.5746537 L103.874099,51.5746537 L103.874099,96.8797384 C103.874099,102.472987 102.569027,106.761079 99.9588444,109.744145 C97.3486618,112.727211 93.6820318,114.218721 88.9588444,114.218721 C86.4729562,114.218721 84.2046173,113.628332 82.1537596,112.447535 C80.1029019,111.266738 78.6424646,109.682008 77.7724037,107.693298 C77.3995205,106.823237 77.0887891,106.077482 76.8402003,105.45601 C76.5916115,104.834538 76.4051727,104.088782 76.2808783,103.218721 C76.1565839,102.348661 76.0633645,101.230028 76.0012173,99.8627893 C75.9390701,98.4955508 75.9079969,96.6311627 75.9079969,94.2695689 L75.9079969,51.5746537 L47.5690139,51.5746537 Z" id="lumo"></path>
            </g>
        </g>
    </g>
</svg>